<svg xmlns="http://www.w3.org/2000/svg" xmlns:xlink="http://www.w3.org/1999/xlink" width="500" zoomAndPan="magnify" viewBox="0 0 375 374.999991" height="500" preserveAspectRatio="xMidYMid meet" version="1.0"><defs><clipPath id="28e81d7848"><path d="M 3 38.671875 L 370 38.671875 L 370 336.421875 L 3 336.421875 Z M 3 38.671875 " clip-rule="nonzero"/></clipPath></defs><g clip-path="url(#28e81d7848)"><path fill="#f78900" d="M 271.5 38.675781 C 266.175781 38.675781 260.675781 39.074219 254.996094 39.875 C 241.046875 41.570312 228.1875 45.382812 216.417969 51.308594 C 214.582031 52.230469 213.546875 54.226562 213.851562 56.257812 C 214.628906 61.5 213.46875 64.582031 210.375 65.5 C 210.25 65.539062 210.128906 65.582031 210.007812 65.628906 C 209.496094 65.828125 209.035156 65.925781 208.625 65.925781 C 207.375 65.925781 206.027344 64.859375 204.578125 62.722656 C 203.859375 61.664062 202.746094 60.9375 201.488281 60.710938 C 201.207031 60.660156 200.921875 60.632812 200.640625 60.632812 C 199.660156 60.632812 198.699219 60.9375 197.890625 61.511719 L 184.695312 70.867188 C 157.53125 53.09375 137.425781 43.59375 124.375 42.371094 C 118.410156 41.117188 110.234375 39.933594 99.855469 38.824219 C 99.6875 38.804688 99.515625 38.796875 99.347656 38.796875 C 97.386719 38.796875 95.601562 40.007812 94.898438 41.878906 C 91.484375 50.957031 86.652344 55.710938 80.398438 56.136719 C 80.253906 56.144531 80.109375 56.160156 79.96875 56.183594 C 79.738281 56.222656 79.492188 56.238281 79.226562 56.238281 C 75.699219 56.238281 70.523438 53.476562 63.707031 47.953125 C 62.835938 47.25 61.777344 46.894531 60.710938 46.894531 C 59.761719 46.894531 58.804688 47.175781 57.984375 47.753906 C 33.550781 64.855469 18.628906 80.496094 13.214844 94.679688 C 4.46875 110.644531 1.402344 133.085938 4.015625 162.003906 C 4.238281 164.457031 6.296875 166.335938 8.753906 166.335938 C 8.769531 166.335938 8.78125 166.335938 8.796875 166.335938 C 8.902344 166.332031 9.011719 166.332031 9.117188 166.332031 C 13.453125 166.332031 15.789062 166.828125 16.128906 167.820312 C 16.195312 168.019531 16.277344 168.214844 16.371094 168.402344 C 17.480469 170.617188 16.320312 173.238281 12.902344 176.261719 C 11.09375 177.863281 10.765625 180.5625 12.144531 182.542969 L 33.628906 213.484375 C 34.523438 214.773438 35.984375 215.53125 37.535156 215.53125 C 37.667969 215.53125 37.800781 215.523438 37.933594 215.511719 C 39.625 215.371094 41.117188 214.335938 41.839844 212.800781 C 43.742188 208.761719 46.832031 206.625 51.105469 206.382812 L 51.105469 206.386719 C 57.691406 206.648438 61.996094 208.464844 64.019531 211.828125 C 69.105469 221.980469 67.503906 231.140625 59.207031 239.304688 C 57.34375 241.140625 57.308594 244.132812 59.128906 246.011719 C 77.558594 265.035156 108.6875 289.683594 152.523438 319.957031 C 168.292969 330.929688 179.46875 336.414062 186.050781 336.414062 C 186.898438 336.414062 187.703125 336.335938 188.464844 336.179688 C 188.746094 336.210938 189.035156 336.226562 189.332031 336.226562 C 189.644531 336.226562 189.96875 336.207031 190.304688 336.171875 C 195.21875 335.613281 206.765625 328.726562 224.945312 315.507812 L 224.941406 315.507812 C 269.882812 284.195312 304.863281 253.507812 329.886719 223.441406 C 359.882812 188.125 372.734375 160.730469 368.429688 141.261719 L 368.425781 141.261719 L 368.195312 138.910156 C 368.035156 137.269531 367.039062 135.832031 365.5625 135.105469 C 364.898438 134.777344 364.179688 134.613281 363.460938 134.613281 C 362.585938 134.613281 361.710938 134.855469 360.945312 135.335938 C 356.800781 137.917969 352.394531 139.207031 347.722656 139.207031 C 345.625 139.207031 343.457031 138.949219 341.222656 138.4375 L 341.21875 138.4375 C 333.660156 136.339844 328.425781 133.050781 325.511719 128.574219 C 320.992188 119.339844 320.945312 109.609375 325.367188 99.386719 L 325.363281 99.386719 C 329.144531 92.007812 335.867188 87.117188 345.539062 84.714844 C 347.21875 84.296875 348.542969 83 348.988281 81.324219 C 349.4375 79.652344 348.941406 77.867188 347.691406 76.664062 C 331.109375 60.71875 318.445312 50.816406 309.703125 46.949219 L 309.699219 46.949219 C 298.214844 41.433594 285.480469 38.675781 271.5 38.675781 Z M 271.5 38.675781 " fill-opacity="1" fill-rule="nonzero"/></g><path fill="#fdce00" d="M 184.796875 76.632812 L 200.640625 65.394531 C 203.855469 70.128906 207.550781 71.6875 211.726562 70.0625 C 217.464844 68.359375 219.738281 63.527344 218.554688 55.558594 C 229.847656 49.875 242.203125 46.21875 255.628906 44.59375 C 275.308594 41.8125 292.660156 44.035156 307.683594 51.261719 C 315.914062 54.867188 328.148438 64.476562 344.394531 80.097656 C 333.273438 82.855469 325.503906 88.597656 321.078125 97.320312 C 315.957031 109.035156 316.050781 120.226562 321.351562 130.898438 C 324.898438 136.542969 331.128906 140.589844 340.03125 143.046875 C 348.539062 145.03125 356.347656 143.808594 363.460938 139.375 L 363.71875 142 C 367.886719 159.933594 355.398438 186.054688 326.257812 220.359375 C 301.507812 250.109375 266.828125 280.523438 222.21875 311.605469 C 202.089844 326.246094 190.8125 332.792969 188.394531 331.246094 C 183.664062 333.207031 172.605469 328.136719 155.226562 316.042969 C 111.648438 285.945312 80.757812 261.5 62.546875 242.699219 C 72.527344 232.871094 74.414062 221.820312 68.195312 209.542969 C 65.300781 204.5625 59.59375 201.921875 51.078125 201.621094 C 44.796875 201.894531 40.28125 204.945312 37.535156 210.769531 L 16.050781 179.828125 C 21.296875 175.191406 22.824219 170.671875 20.628906 166.273438 C 19.53125 163.082031 15.574219 161.515625 8.753906 161.574219 C 6.210938 133.4375 9.140625 111.804688 17.546875 96.675781 C 22.507812 83.332031 36.894531 68.324219 60.714844 51.652344 C 69.257812 58.578125 75.925781 61.652344 80.722656 60.882812 C 89.007812 60.320312 95.21875 54.542969 99.351562 43.554688 C 109.734375 44.667969 117.839844 45.84375 123.667969 47.085938 C 136.328125 48.15625 156.703125 58.003906 184.796875 76.632812 " fill-opacity="1" fill-rule="nonzero"/><path fill="#f78900" d="M 71.296875 93.480469 L 71.644531 93.421875 C 78.03125 92.457031 84.0625 93.808594 89.738281 97.476562 C 92.359375 99.234375 94.632812 101.640625 96.554688 104.703125 C 97.15625 105.6875 97.6875 106.707031 98.140625 107.765625 L 98.765625 109.375 C 99.144531 110.460938 99.441406 111.570312 99.660156 112.703125 C 100.710938 119.53125 99.308594 125.605469 95.460938 130.921875 C 91.484375 136.171875 86.261719 139.433594 79.789062 140.710938 C 77.035156 141.355469 73.621094 141.289062 69.546875 140.515625 C 66.601562 139.867188 63.804688 138.664062 61.15625 136.910156 C 55.289062 132.574219 51.910156 127.324219 51.027344 121.160156 C 50.125 114.910156 51.421875 109.160156 54.914062 103.902344 C 55.601562 102.910156 56.359375 101.972656 57.1875 101.09375 C 57.53125 100.570312 58.902344 99.398438 61.308594 97.566406 C 64.347656 95.488281 67.675781 94.125 71.296875 93.480469 " fill-opacity="1" fill-rule="nonzero"/><path fill="#f78900" d="M 120.402344 165.992188 L 121.175781 165.773438 C 125.917969 164.523438 130.664062 164.285156 135.417969 165.0625 C 137.859375 165.453125 140.234375 166.09375 142.542969 166.980469 C 145.375 168.195312 147.039062 168.996094 147.535156 169.382812 C 150.898438 171.132812 154.390625 174.328125 158.007812 178.960938 C 159.042969 180.398438 159.972656 181.902344 160.792969 183.472656 C 162.644531 187.492188 163.613281 189.957031 163.699219 190.867188 C 166.074219 198.910156 165.210938 207.460938 161.101562 216.519531 C 156.675781 225.109375 149.878906 230.9375 140.707031 234.007812 C 135.816406 235.398438 131.734375 235.914062 128.460938 235.550781 C 127.742188 235.613281 125.664062 235.28125 122.226562 234.554688 C 119.488281 233.851562 116.875 232.835938 114.378906 231.5 C 108.972656 228.28125 105.199219 225.042969 103.054688 221.78125 C 100.386719 218.214844 98.425781 214.296875 97.171875 210.019531 C 94.535156 199.917969 95.605469 190.605469 100.378906 182.074219 C 101.871094 178.941406 104.960938 175.410156 109.652344 171.488281 C 112.910156 169.015625 116.492188 167.183594 120.402344 165.992188 " fill-opacity="1" fill-rule="nonzero"/><path fill="#f78900" d="M 167.484375 298.925781 L 167.402344 298.925781 C 166.152344 298.980469 164.695312 298.703125 163.023438 298.089844 C 161.804688 297.597656 160.695312 296.882812 159.691406 295.949219 C 158.742188 295.109375 157.921875 293.941406 157.234375 292.441406 C 157.027344 291.953125 156.859375 291.449219 156.734375 290.933594 C 156.621094 290.683594 156.515625 289.894531 156.421875 288.570312 C 156.464844 287.238281 156.535156 286.449219 156.636719 286.191406 C 156.742188 285.667969 156.886719 285.160156 157.070312 284.660156 C 157.640625 283.144531 158.5 281.820312 159.652344 280.683594 C 160.804688 279.550781 162.136719 278.691406 163.640625 278.105469 C 165.113281 277.574219 166.480469 277.324219 167.746094 277.351562 C 170.535156 277.316406 173.0625 278.300781 175.332031 280.308594 C 176.351562 281.265625 177.152344 282.378906 177.734375 283.648438 C 178.410156 285.25 178.714844 286.753906 178.65625 288.164062 C 178.683594 289.210938 178.410156 290.492188 177.839844 292.011719 C 177.269531 293.382812 176.457031 294.585938 175.398438 295.625 C 173.179688 297.722656 170.539062 298.824219 167.484375 298.925781 " fill-opacity="1" fill-rule="nonzero"/><path fill="#f78900" d="M 231.832031 243.128906 L 232.296875 242.980469 C 236.773438 241.625 241.1875 241.992188 245.535156 244.082031 C 247.648438 245.191406 249.433594 246.695312 250.890625 248.585938 C 251.367188 249.210938 251.796875 249.863281 252.179688 250.546875 L 252.714844 251.59375 C 253.042969 252.304688 253.316406 253.035156 253.53125 253.789062 C 253.984375 254.917969 254.148438 256.820312 254.019531 259.488281 C 253.773438 261.800781 253.074219 263.96875 251.914062 265.988281 C 251.425781 267.066406 250.203125 268.523438 248.246094 270.355469 C 246.472656 271.847656 244.480469 272.960938 242.277344 273.695312 C 237.421875 275.144531 232.949219 274.855469 228.855469 272.820312 C 228.582031 272.722656 227.84375 272.277344 226.644531 271.484375 C 225.707031 270.808594 224.847656 270.042969 224.074219 269.1875 C 222.480469 267.371094 221.390625 265.46875 220.8125 263.472656 C 220.136719 261.214844 219.96875 258.914062 220.304688 256.570312 C 220.679688 254.664062 220.96875 253.539062 221.175781 253.195312 C 221.453125 252.46875 221.78125 251.765625 222.164062 251.089844 C 222.648438 249.996094 223.867188 248.503906 225.820312 246.609375 C 227.597656 245.054688 229.601562 243.898438 231.832031 243.128906 " fill-opacity="1" fill-rule="nonzero"/><path fill="#f78900" d="M 289.683594 179.882812 L 290.128906 179.761719 C 295.6875 178.445312 300.929688 179.21875 305.863281 182.078125 C 308.074219 183.363281 310.089844 185.292969 311.917969 187.871094 C 312.472656 188.691406 312.96875 189.550781 313.398438 190.441406 L 313.992188 191.800781 C 314.355469 192.722656 314.648438 193.667969 314.867188 194.632812 C 315.910156 200.273438 314.988281 205.269531 312.097656 209.617188 C 309.121094 213.992188 305.058594 216.835938 299.917969 218.140625 C 295.070312 219.332031 290.199219 218.679688 285.304688 216.183594 C 283.085938 215.039062 281.042969 213.304688 279.171875 210.980469 C 278.570312 210.199219 278.03125 209.378906 277.550781 208.515625 C 277.230469 208.121094 276.660156 206.761719 275.839844 204.445312 C 274.320312 199.6875 274.859375 194.722656 277.449219 189.554688 C 280.230469 184.699219 284.308594 181.472656 289.683594 179.882812 " fill-opacity="1" fill-rule="nonzero"/><path fill="#f78900" d="M 202.96875 199.324219 L 203.039062 199.316406 C 204.273438 199.214844 205.421875 199.351562 206.480469 199.722656 C 207.546875 200.046875 208.621094 200.714844 209.703125 201.71875 C 211.492188 203.5625 212.457031 205.765625 212.605469 208.335938 C 212.710938 211.21875 211.933594 213.738281 210.261719 215.898438 C 208.757812 217.863281 206.71875 219.015625 204.15625 219.363281 C 201.941406 219.632812 199.820312 218.890625 197.785156 217.128906 C 197.089844 216.554688 196.390625 215.558594 195.683594 214.144531 C 195.109375 212.851562 194.792969 211.496094 194.730469 210.078125 C 194.625 207.5 195.300781 205.15625 196.761719 203.042969 C 198.320312 200.925781 200.390625 199.683594 202.96875 199.324219 " fill-opacity="1" fill-rule="nonzero"/><path fill="#f78900" d="M 240.175781 127.582031 L 240.503906 127.527344 C 241.96875 127.273438 243.617188 127.1875 245.453125 127.265625 C 247.558594 127.460938 248.816406 127.632812 249.222656 127.777344 C 251.722656 128.324219 254.0625 129.265625 256.234375 130.605469 C 261.074219 133.707031 264.109375 137.984375 265.34375 143.429688 C 265.90625 146.039062 265.878906 148.738281 265.261719 151.527344 C 264.664062 154.035156 263.621094 156.347656 262.125 158.464844 C 260.632812 160.578125 258.804688 162.34375 256.652344 163.765625 C 254.914062 165.082031 252.171875 166.195312 248.421875 167.105469 C 245.710938 167.644531 242.921875 167.675781 240.046875 167.199219 C 238.308594 166.902344 236.628906 166.414062 235.003906 165.734375 C 233.019531 164.808594 231.859375 164.195312 231.523438 163.898438 C 226.804688 160.777344 223.855469 156.390625 222.683594 150.734375 C 222.242188 148.003906 222.324219 145.476562 222.925781 143.152344 C 222.960938 142.730469 223.359375 141.570312 224.121094 139.667969 C 224.796875 138.164062 225.648438 136.765625 226.667969 135.46875 C 228.21875 133.53125 230.054688 131.914062 232.167969 130.617188 C 233.882812 129.40625 236.550781 128.394531 240.175781 127.582031 " fill-opacity="1" fill-rule="nonzero"/><path fill="#f78900" d="M 154.265625 120.496094 L 154.332031 120.492188 C 157.023438 120.332031 159.472656 121.085938 161.683594 122.757812 C 163.90625 124.492188 165.203125 126.886719 165.570312 129.9375 C 165.824219 132.5625 165.039062 135.042969 163.214844 137.375 C 161.273438 139.613281 158.824219 140.855469 155.871094 141.105469 C 154.515625 141.179688 153.285156 141.046875 152.171875 140.710938 C 150.460938 140.132812 149.230469 139.496094 148.476562 138.804688 C 147.605469 138.203125 146.703125 137.097656 145.761719 135.488281 C 145.191406 134.417969 144.828125 133.210938 144.667969 131.871094 C 144.527344 130.417969 144.6875 128.996094 145.140625 127.605469 C 145.753906 126.03125 146.316406 124.976562 146.835938 124.441406 C 148.769531 122.109375 151.246094 120.792969 154.265625 120.496094 " fill-opacity="1" fill-rule="nonzero"/><path fill="#f78900" d="M 258.160156 94.789062 L 258.160156 94.792969 C 253.855469 94.589844 250.800781 92.53125 249.003906 88.613281 C 248.265625 86.835938 248.089844 84.910156 248.472656 82.839844 C 248.894531 80.816406 249.847656 79.085938 251.328125 77.640625 C 252.914062 76.1875 254.574219 75.308594 256.300781 74.996094 C 258.335938 74.589844 260.300781 74.769531 262.195312 75.53125 C 264.023438 76.296875 265.511719 77.484375 266.65625 79.101562 C 267.136719 79.714844 267.597656 80.679688 268.039062 81.992188 C 268.300781 82.878906 268.4375 83.785156 268.449219 84.710938 C 268.433594 87.621094 267.378906 90.085938 265.285156 92.105469 C 263.109375 94 260.734375 94.898438 258.160156 94.789062 " fill-opacity="1" fill-rule="nonzero"/></svg>